<?xml version="1.0" encoding="UTF-8"?>
<svg width="206px" height="50px" viewBox="0 0 206 50" version="1.1" xmlns="http://www.w3.org/2000/svg" xmlns:xlink="http://www.w3.org/1999/xlink">
    <title>94954FD4-719B-4839-AA89-F55AF4254ECB</title>
    <g id="Design-Site-Web" stroke="none" stroke-width="1" fill="none" fill-rule="evenodd">
        <g id="Web" transform="translate(-120.000000, -24.000000)">
            <g id="Loiva_logo_rgb" transform="translate(120.000000, 24.000000)">
                <path d="M134.500322,11 C132.464052,11 131,12.1609668 131,13.8439998 L131,47.1560002 C131,48.8396481 132.464052,50 134.500322,50 C136.536592,50 138,48.8396481 138,47.1560002 L138,13.8439998 C138,12.1609668 136.536592,11 134.500322,11" id="Fill-1" fill="#FFFFFF"></path>
                <path d="M54.4996778,38 C56.5359477,38 58,36.8707611 58,35.2328561 L58,13.7677424 C58,12.1298373 56.5359477,11 54.4996778,11 C52.4634079,11 51,12.1298373 51,13.7677424 L51,35.2328561 C51,36.8707611 52.4634079,38 54.4996778,38" id="Fill-2" fill="#FFFFFF"></path>
                <path d="M75.1129838,43 L53.8870162,43 C52.1772784,43 51,44.4635426 51,46.5 C51,48.5364574 52.1772784,50 53.8870162,50 L75.1129838,50 C76.8208489,50 78,48.5364574 78,46.5 C78,44.4635426 76.8208489,43 75.1129838,43" id="Fill-3" fill="#FFFFFF"></path>
                <path d="M205.524219,45.0603367 L191.267036,15.475319 C189.898713,12.2205975 188.174456,11 185.439014,11 L185.022254,11 C182.345833,11 180.561953,12.2205975 179.253253,15.475319 L166.667328,41.107867 L166.659499,41.1238789 L166.658897,41.1244947 C166.489061,41.5235599 166.101811,41.8031518 165.649517,41.8031518 C165.196621,41.8031518 164.809974,41.522944 164.640138,41.1238789 L164.633513,41.1238789 L151.720564,13.441195 C151.065912,11.8720313 149.876459,11 148.449114,11 C146.486365,11 145,12.2784866 145,14.0804384 C145,14.5453986 145.178267,15.1852577 145.475781,15.9402792 L159.733566,45.5252969 C161.10189,48.7800183 162.826146,50 165.56219,50 L165.977746,50 C168.655372,50 170.438649,48.7800183 171.746747,45.5252969 L184.439271,19.0970819 L184.46577,19.030571 C184.476611,19.0016265 184.487451,18.9745294 184.500701,18.9474324 C184.633197,18.6832365 184.904814,18.4972524 185.225816,18.4972524 C185.535977,18.4972524 185.796151,18.6727672 185.933466,18.9227988 C185.959965,18.9702185 185.97743,19.0194859 185.993691,19.0718324 L186.003327,19.0970819 L192.766049,33.5939869 L184.664514,33.5939869 C182.922191,33.5939869 181.5093,35.0387506 181.5093,36.8197638 C181.5093,38.6013927 182.922191,40.0461565 184.664514,40.0461565 L195.775517,40.0461565 L199.280039,47.558805 C199.934088,49.1285845 201.124746,50 202.551488,50 C204.514839,50 206,48.7221292 206,46.9201775 C206,46.4552173 205.822335,45.8153581 205.524219,45.0603367" id="Fill-4" fill="#FFFFFF"></path>
                <path d="M102.000305,10 C90.4209251,10 81,19.4592611 81,31.0857597 C81,38.7931245 85.1859271,45.8826768 91.9238624,49.5889405 C92.4197647,49.8617568 92.9637951,50 93.5133085,50 C93.8258366,50 94.1408016,49.9553462 94.4496744,49.8648153 C95.2995315,49.6152435 96.0019582,49.0475899 96.4284098,48.267678 C97.3069001,46.6564717 96.71596,44.6280891 95.1118928,43.7454123 C90.5007325,41.2093222 87.6361962,36.358576 87.6361962,31.0857597 C87.6361962,23.133105 94.0798799,16.6632004 102.000305,16.6632004 C109.92012,16.6632004 116.363804,23.133105 116.363804,31.0857597 C116.363804,36.358576 113.499877,41.2093222 108.889326,43.7454123 C107.284649,44.6280891 106.693709,46.6564717 107.572809,48.267678 C108.15522,49.3350869 109.271304,49.9981649 110.486082,49.9981649 C111.039251,49.9981649 111.589374,49.8568632 112.076138,49.5889405 C118.814682,45.8832885 123,38.7931245 123,31.0857597 C123,19.4592611 113.579684,10 102.000305,10" id="Fill-5" fill="#FFFFFF"></path>
                <path d="M122,4.50032569 C122,6.98530795 124.014041,9 126.499674,9 C128.984657,9 131,6.98530795 131,4.50032569 C131,2.01469205 128.984657,0 126.499674,0 C124.014041,0 122,2.01469205 122,4.50032569" id="Fill-6" fill="#E98B86"></path>
                <path d="M137,4.50032569 C137,6.98530795 139.014692,9 141.500326,9 C143.985308,9 146,6.98530795 146,4.50032569 C146,2.01469205 143.985308,0 141.500326,0 C139.014692,0 137,2.01469205 137,4.50032569" id="Fill-7" fill="#73C5C5"></path>
                <path d="M20,14 C20,15.6566092 21.3426724,17 23,17 C24.6566092,17 26,15.6566092 26,14 C26,12.3433908 24.6566092,11 23,11 C21.3426724,11 20,12.3433908 20,14" id="Fill-8" fill="#E98B86"></path>
                <path d="M20,20.9996408 C20,22.65677 21.3426724,24 23,24 C24.6566092,24 26,22.65677 26,20.9996408 C26,19.34323 24.6566092,18 23,18 C21.3426724,18 20,19.34323 20,20.9996408" id="Fill-9" fill="#73C5C5"></path>
                <path d="M12,14 C12,15.6566092 13.3428332,17 15.0003592,17 C16.6571668,17 18,15.6566092 18,14 C18,12.3433908 16.6571668,11 15.0003592,11 C13.3428332,11 12,12.3433908 12,14" id="Fill-10" fill="#E98B86"></path>
                <path d="M12,20.9996408 C12,22.65677 13.3428332,24 15.0003592,24 C16.6571668,24 18,22.65677 18,20.9996408 C18,19.34323 16.6571668,18 15.0003592,18 C13.3428332,18 12,19.34323 12,20.9996408" id="Fill-11" fill="#73C5C5"></path>
                <path d="M6,20.9996408 C6,22.65677 7.3433908,24 9.00071839,24 C10.6566092,24 12,22.65677 12,20.9996408 C12,19.34323 10.6566092,18 9.00071839,18 C7.3433908,18 6,19.34323 6,20.9996408" id="Fill-12" fill="#233981"></path>
                <path d="M27,20.9996408 C27,22.65677 28.3426724,24 30,24 C31.6573276,24 33,22.65677 33,20.9996408 C33,19.34323 31.6573276,18 30,18 C28.3426724,18 27,19.34323 27,20.9996408" id="Fill-13" fill="#233981"></path>
                <path d="M6,28 C6,29.6566092 7.3433908,31 9.00071839,31 C10.6566092,31 12,29.6566092 12,28 C12,26.3426724 10.6566092,25 9.00071839,25 C7.3433908,25 6,26.3426724 6,28" id="Fill-14" fill="#73C5C5"></path>
                <path d="M0,28 C0,29.6566092 1.3433908,31 3.00071839,31 C4.6566092,31 6,29.6566092 6,28 C6,26.3426724 4.6566092,25 3.00071839,25 C1.3433908,25 0,26.3426724 0,28" id="Fill-15" fill="#E98B86"></path>
                <path d="M6,35.0007184 C6,36.6573276 7.3433908,38 9.00071839,38 C10.6566092,38 12,36.6573276 12,35.0007184 C12,33.3441092 10.6566092,32 9.00071839,32 C7.3433908,32 6,33.3441092 6,35.0007184" id="Fill-16" fill="#73C5C5"></path>
                <path d="M0,35.0007184 C0,36.6573276 1.3433908,38 3.00071839,38 C4.6566092,38 6,36.6573276 6,35.0007184 C6,33.3441092 4.6566092,32 3.00071839,32 C1.3433908,32 0,33.3441092 0,35.0007184" id="Fill-17" fill="#E98B86"></path>
                <path d="M34,28 C34,29.6566092 35.34323,31 36.9996408,31 C38.65677,31 40,29.6566092 40,28 C40,26.3426724 38.65677,25 36.9996408,25 C35.34323,25 34,26.3426724 34,28" id="Fill-18" fill="#E98B86"></path>
                <path d="M27,28 C27,29.6566092 28.3426724,31 30,31 C31.6573276,31 33,29.6566092 33,28 C33,26.3426724 31.6573276,25 30,25 C28.3426724,25 27,26.3426724 27,28" id="Fill-19" fill="#73C5C5"></path>
                <path d="M34,35.0007184 C34,36.6573276 35.34323,38 36.9996408,38 C38.65677,38 40,36.6573276 40,35.0007184 C40,33.3441092 38.65677,32 36.9996408,32 C35.34323,32 34,33.3441092 34,35.0007184" id="Fill-20" fill="#E98B86"></path>
                <path d="M27,35.0007184 C27,36.6573276 28.3426724,38 30,38 C31.6573276,38 33,36.6573276 33,35.0007184 C33,33.3441092 31.6573276,32 30,32 C28.3426724,32 27,33.3441092 27,35.0007184" id="Fill-21" fill="#73C5C5"></path>
                <path d="M18,47 C18,45.3433908 16.6571668,44 15.0003592,44 C13.3428332,44 12,45.3433908 12,47 C12,48.6566092 13.3428332,50 15.0003592,50 C16.6571668,50 18,48.6566092 18,47" id="Fill-22" fill="#E98B86"></path>
                <path d="M18,41 C18,39.3433908 16.6571668,38 15.0003592,38 C13.3428332,38 12,39.3433908 12,41 C12,42.6566092 13.3428332,44 15.0003592,44 C16.6571668,44 18,42.6566092 18,41" id="Fill-23" fill="#73C5C5"></path>
                <path d="M26,47 C26,45.3433908 24.6566092,44 23,44 C21.3426724,44 20,45.3433908 20,47 C20,48.6566092 21.3426724,50 23,50 C24.6566092,50 26,48.6566092 26,47" id="Fill-24" fill="#E98B86"></path>
                <path d="M26,41 C26,39.3433908 24.6566092,38 23,38 C21.3426724,38 20,39.3433908 20,41 C20,42.6566092 21.3426724,44 23,44 C24.6566092,44 26,42.6566092 26,41" id="Fill-25" fill="#73C5C5"></path>
                <path d="M33,41 C33,39.3433908 31.6573276,38 30,38 C28.3426724,38 27,39.3433908 27,41 C27,42.6566092 28.3426724,44 30,44 C31.6573276,44 33,42.6566092 33,41" id="Fill-26" fill="#233981"></path>
                <path d="M12,41 C12,39.3433908 10.6566092,38 9.00071839,38 C7.3433908,38 6,39.3433908 6,41 C6,42.6566092 7.3433908,44 9.00071839,44 C10.6566092,44 12,42.6566092 12,41" id="Fill-27" fill="#233981"></path>
            </g>
        </g>
    </g>
</svg>